<!-- Simple SVG sprite with a few icons for the UI -->
<svg xmlns="http://www.w3.org/2000/svg" style="display:none">
  <symbol id="icon-rocket" viewBox="0 0 24 24">
    <path fill="currentColor" d="M12 2c1.1 0 2 .9 2 2 0 .3-.1.6-.2.9l1.1 1.1c1.2-1 2.8-1.3 4.2-.7.8.3 1.6-.2 1.8-1 .2-1-.5-1.7-1.3-1.9C19.9.2 16 .1 13.1 1.5 12.6 1.7 12.3 2 12 2zM3 21c0-1.6 4.7-5.9 7.5-8.6 1.1 1.1 4.6 4.6 5.6 5.7C14.5 22.7 9.7 24 7.4 24 5.6 24 3 23 3 21z"/>
  </symbol>
  <symbol id="icon-clock" viewBox="0 0 24 24">
    <path fill="currentColor" d="M12 1a11 11 0 1 0 11 11A11 11 0 0 0 12 1zm1 12h4v-2h-3V6h-2v7z"/>
  </symbol>
  <symbol id="icon-shield" viewBox="0 0 24 24">
    <path fill="currentColor" d="M12 2l7 3v5c0 5-3.6 9.6-7 10-3.4-.4-7-5-7-10V5l7-3z"/>
  </symbol>
  <symbol id="icon-user" viewBox="0 0 24 24">
    <path fill="currentColor" d="M12 12a4 4 0 1 0-4-4 4 4 0 0 0 4 4zm0 2c-3 0-8 1.5-8 4.5V22h16v-3.5C20 15.5 15 14 12 14z"/>
  </symbol>
</svg>
